<svg xmlns="http://www.w3.org/2000/svg" viewBox="0 0 1080 1080" fill="currentColor">
  <polygon points="436.5,199.8 355,277.1 290.7,212.9 209.8,212.9 209.8,414.9 97.4,521.6 97.4,115.5 97.5,115.5 97.5,100.5 337.3,100.5" fill="currentColor"></polygon>
  <polygon points="975.3,895.4 975.3,977 593.4,977 255.8,639.5 336.7,562.7 638.7,864.7 863,864.7 863,783.1" fill="currentColor"></polygon>
  <polygon points="975.4,736.6 975.4,895.5 862.9,783.1 493.6,413.8 575.2,336.4" fill="currentColor"></polygon>
  <polygon points="648.7,626.8 560.5,728.3 480.9,648.6 569,547.1" fill="currentColor"></polygon>
  <polygon points="863,783.1 863,864.7 862.9,864.7 862.9,783.1" fill="currentColor"></polygon>
  <polygon points="975.4,736.6 975.4,736.6 975.3,736.6" fill="currentColor"></polygon>
  <polygon points="975.4,895.5 975.4,972.5 975.3,972.5 975.3,895.4" fill="currentColor"></polygon>
  <polygon points="983.6,100.5 983.6,240 776,478.9 696.4,399.3 858.3,212.9 645.2,212.9 209.8,626.1 97.4,736.6 97.4,577.3 97.4,577.3 601.7,100.5" fill="currentColor"></polygon>
  <polygon points="97.4,577.3 97.4,577.3 97.4,577.3" fill="currentColor"></polygon>
  <polygon points="432.6,874.2 340.7,979.9 97.5,979.9 97.5,964.8 97.4,964.8 97.4,736.6 209.8,626.1 209.8,867.5 289.5,867.5 352.9,794.5" fill="currentColor"></polygon>
</svg>